<svg width="21" height="20" viewBox="0 0 21 20" fill="none" xmlns="http://www.w3.org/2000/svg">
<path fill-rule="evenodd" clip-rule="evenodd" d="M2.50251 18.3318C2.28144 18.3318 2.06876 18.2442 1.91276 18.0874C1.75593 17.9314 1.66834 17.7187 1.66834 17.4976V0H0V17.4976C0 18.1616 0.263611 18.7981 0.733253 19.2669C1.20207 19.7365 1.83855 20.0001 2.50252 20.0001H20.0202V18.3318H2.50251Z" fill="#5d5d5d"/>
<path fill-rule="evenodd" clip-rule="evenodd" d="M5.83805 10.0101H4.1713V15.8485H5.83805V10.0101Z" fill="#5d5d5d"/>
<path fill-rule="evenodd" clip-rule="evenodd" d="M10.0103 8.3436H8.3436V15.8486H10.0103V8.3436Z" fill="#5d5d5d"/>
<path fill-rule="evenodd" clip-rule="evenodd" d="M14.1816 10.8485H12.5149V15.8485H14.1816V10.8485Z" fill="#5d5d5d"/>
<path fill-rule="evenodd" clip-rule="evenodd" d="M18.3539 7.50515H16.6873V15.8485H18.3539V7.50515Z" fill="#5d5d5d"/>
<path fill-rule="evenodd" clip-rule="evenodd" d="M9.17129 3.68577L13.3422 7.85578L19.7713 1.42811L18.5918 0.248824L13.3422 5.4972L9.17129 1.32719L4.41059 6.08684L5.59009 7.26612L9.17129 3.68577Z" fill="#5d5d5d"/>
</svg>
