<svg width="16" height="16" viewBox="0 0 16 16" fill="none" xmlns="http://www.w3.org/2000/svg">
<mask id="mask0_0:494" style="mask-type:alpha" maskUnits="userSpaceOnUse" x="0" y="0" width="16" height="16">
<path fill-rule="evenodd" clip-rule="evenodd" d="M0 16V0H16V16H0Z" fill="#EA4335"/>
</mask>
<g mask="url(#mask0_0:494)">
<path fill-rule="evenodd" clip-rule="evenodd" d="M11.9999 14C11.9999 14.18 11.9299 14.3467 11.8046 14.4734C11.6799 14.5934 11.5099 14.6667 11.3333 14.6667H4.66659C4.48992 14.6667 4.32059 14.5934 4.19525 14.4734C4.07059 14.3467 3.99992 14.18 3.99992 14V3.99999H11.9999L11.9999 14ZM5.99993 1.33336H9.99993V2.66673H5.99993V1.33336ZM14.6666 2.66674H11.3333V1.33337C11.3333 0.97998 11.1926 0.64001 10.9426 0.39331C10.6926 0.14001 10.3539 0 9.99992 0H5.99992C5.64659 0 5.30725 0.14001 5.05725 0.39331C4.80725 0.64001 4.66659 0.97998 4.66659 1.33337V2.66674H1.33325V3.99999H2.66659V14C2.66659 14.5334 2.87726 15.04 3.25259 15.4133C3.62726 15.7867 4.13659 16 4.66659 16H11.3333C11.8639 16 12.3726 15.7867 12.7473 15.4133C13.1226 15.04 13.3333 14.5334 13.3333 14V3.99999H14.6666V2.66674Z" fill="#EA4335"/>
<path fill-rule="evenodd" clip-rule="evenodd" d="M7.33667 6.66325H6V12H7.33667V6.66325Z" fill="#EA4335"/>
<path fill-rule="evenodd" clip-rule="evenodd" d="M10.0001 6.66325H8.66341V12H10.0001V6.66325Z" fill="#EA4335"/>
</g>
</svg>
