<svg width="16" height="16" viewBox="0 0 16 16" fill="none" xmlns="http://www.w3.org/2000/svg">
<path fill-rule="evenodd" clip-rule="evenodd" d="M4.6666 10.2761L13.3713 1.57141C13.5139 1.43542 13.7033 1.35937 13.8999 1.35937C14.0973 1.35937 14.2866 1.43542 14.4286 1.57141C14.5686 1.71136 14.6473 1.90137 14.6473 2.10004C14.6473 2.29804 14.5686 2.48804 14.4286 2.62873L5.72395 11.3334H4.66661L4.6666 10.2761ZM3.33325 12.6667H6.27594L15.3713 3.57141C15.7613 3.18072 15.9799 2.65137 15.9799 2.10004C15.9799 1.54804 15.7613 1.01941 15.3713 0.628727C14.9753 0.250067 14.4479 0.0387573 13.8999 0.0387573C13.3519 0.0387573 12.8246 0.250057 12.4286 0.628727L3.33326 9.72407L3.33325 12.6667Z" fill="#4285F4"/>
<path fill-rule="evenodd" clip-rule="evenodd" d="M12 14.3907V12H14.3907L12 14.3907ZM15.7473 5.08136L14.6667 6.16199V10.6667H10.6667V14.6667H1.33335V2C1.33335 1.8233 1.40333 1.65332 1.52866 1.52869C1.65332 1.40332 1.82334 1.33332 2 1.33332H9.83865L10.9193 0.25269C11.0167 0.16266 11.1193 0.07801 11.2266 0H2C1.46933 0 0.96066 0.21069 0.586 0.586C0.21066 0.96069 0 1.46936 0 2V16H12.276L16 12.276V4.77399C15.922 4.88135 15.8373 4.98401 15.7473 5.08136H15.7473Z" fill="#4285F4"/>
</svg>
