<svg width="179" height="48" viewBox="0 0 179 48" fill="none" xmlns="http://www.w3.org/2000/svg">
<path fill-rule="evenodd" clip-rule="evenodd" d="M7.44471 39.5862C7.34613 39.5862 7.25012 39.5862 7.1509 39.5837C6.02028 39.54 4.9595 39.0254 4.22554 38.1643C3.30225 37.0968 2.60236 35.855 2.16723 34.5124C1.58996 32.8408 1.18647 31.1141 0.963167 29.3598C0.699107 27.3993 0.577904 25.4223 0.600538 23.4442C0.614021 21.4004 0.777372 19.3604 1.08927 17.3405C1.35679 15.5179 1.80847 13.7272 2.43737 11.9959C2.91371 10.602 3.65927 9.31531 4.6317 8.20886C5.53939 7.25291 6.55719 6.76869 7.65659 6.76869H7.72253C9.07918 6.7919 10.4279 6.98095 11.7386 7.33164C15.5285 8.35209 18.8314 10.6883 21.0556 13.9218C16.8842 15.2705 13.9908 19.07 13.8 23.4495C13.6091 27.8291 16.1611 31.8658 20.1994 33.5721C17.0627 37.3852 12.3821 39.5922 7.44439 39.5862H7.44471Z" fill="#623FD9"/>
<path fill-rule="evenodd" clip-rule="evenodd" d="M40.5587 39.749H40.4948C39.2593 39.7279 38.0301 39.5694 36.8297 39.2764C33.3631 38.4248 30.2658 36.4725 28.002 33.7122C32.0655 32.1524 34.7533 28.2557 34.7683 23.9024C34.7469 19.2859 31.7293 15.2185 27.3179 13.86C30.415 9.5071 35.4289 6.92485 40.7706 6.93152C40.8701 6.93152 40.9664 6.93152 41.0656 6.93408C42.1954 6.978 43.2554 7.49253 43.989 8.35312C44.9116 9.4203 45.611 10.6616 46.0458 12.0038C46.6228 13.6745 47.0262 15.4001 47.2496 17.1535C47.5139 19.1139 47.6354 21.091 47.6131 23.069C47.5998 25.1133 47.4366 27.1537 47.1248 29.1741C46.8573 30.9966 46.4057 32.7873 45.777 34.5187C45.3013 35.9136 44.5561 37.2014 43.5839 38.3089C42.677 39.2642 41.6579 39.7487 40.5587 39.749Z" fill="#24F593"/>
<path fill-rule="evenodd" clip-rule="evenodd" d="M34.0374 20.0716C32.4645 16.0704 28.6101 13.4338 24.3114 13.4183C20.0127 13.4027 16.1394 16.0115 14.5377 20.0012C13.5046 19.2402 12.5635 18.3617 11.7331 17.3834C10.9012 16.4035 10.1869 15.3294 9.6049 14.1832C8.40099 11.8092 7.7978 9.17606 7.84823 6.51463C7.89112 5.40795 8.39193 4.36889 9.23085 3.64598C10.2718 2.73709 11.4839 2.04562 12.796 1.61226C14.4323 1.03705 16.1233 0.631168 17.8424 0.400984C19.7723 0.128478 21.7192 -0.00553033 23.6682 0C25.2872 -0.00109007 26.905 0.0872652 28.5143 0.264656C30.0354 0.428836 31.5441 0.693221 33.0304 1.05606C34.3382 1.36737 35.6126 1.8052 36.8356 2.36334C37.8388 2.80728 38.7565 3.42331 39.5474 4.18361C40.3557 4.93458 40.8167 5.98697 40.8206 7.09034C40.779 9.67385 40.1229 12.2103 38.9065 14.4898C38.3184 15.591 37.6069 16.6217 36.7857 17.562C35.9668 18.4993 35.045 19.3413 34.0377 20.0722L34.0374 20.0716Z" fill="#2DDBEE"/>
<path fill-rule="evenodd" clip-rule="evenodd" d="M24.2451 47.9996C22.2295 48.0045 20.2162 47.8618 18.2214 47.5727C16.4305 47.3269 14.6697 46.8979 12.9664 46.2925C9.61265 45.0507 7.83978 43.2795 7.83978 41.1671C7.83919 39.8309 7.99947 38.4995 8.31715 37.2016C9.24227 33.4507 11.4523 30.1427 14.563 27.8528C16.1624 31.8132 20.0097 34.4017 24.2797 34.3903C28.5335 34.3995 32.369 31.8301 33.9801 27.8919C38.1829 31.0079 40.6582 35.9341 40.6505 41.1671C40.6505 43.2776 38.8776 45.0494 35.5239 46.2906C33.8206 46.896 32.0597 47.325 30.2689 47.5708C28.2741 47.8605 26.2608 48.0039 24.2451 47.9997L24.2451 47.9996Z" fill="#F524B6"/>
<path d="M73.768 16.414C73.9 16.062 74.098 15.798 74.362 15.622C74.6407 15.4313 74.9487 15.336 75.286 15.336C75.7113 15.336 76.0707 15.468 76.364 15.732C76.672 15.996 76.826 16.3553 76.826 16.81C76.826 17.03 76.782 17.272 76.694 17.536L72.118 30.054C71.986 30.406 71.7513 30.6847 71.414 30.89C71.0913 31.0807 70.732 31.176 70.336 31.176C69.94 31.176 69.5807 31.0807 69.258 30.89C68.9353 30.6847 68.708 30.406 68.576 30.054L65.298 20.792L61.932 30.054C61.8 30.406 61.5727 30.6847 61.25 30.89C60.9273 31.0807 60.568 31.176 60.172 31.176C59.7907 31.176 59.4313 31.0807 59.094 30.89C58.7713 30.6847 58.544 30.406 58.412 30.054L53.836 17.536C53.748 17.2867 53.704 17.052 53.704 16.832C53.704 16.3773 53.8653 16.018 54.188 15.754C54.5107 15.4753 54.892 15.336 55.332 15.336C55.684 15.336 55.9993 15.4313 56.278 15.622C56.5713 15.798 56.784 16.062 56.916 16.414L60.304 26.16L63.824 16.458C63.956 16.106 64.1613 15.8347 64.44 15.644C64.7333 15.4533 65.0413 15.358 65.364 15.358C65.7013 15.358 66.0093 15.4533 66.288 15.644C66.5667 15.8347 66.772 16.1133 66.904 16.48L70.27 26.336L73.768 16.414ZM79.3612 31C78.8478 31 78.4518 30.8607 78.1732 30.582C77.8945 30.3033 77.7552 29.9073 77.7552 29.394V17.096C77.7552 16.5827 77.8945 16.1867 78.1732 15.908C78.4518 15.6293 78.8478 15.49 79.3612 15.49H87.1492C88.2345 15.49 88.7772 15.93 88.7772 16.81C88.7772 17.7047 88.2345 18.152 87.1492 18.152H81.0992V21.782H86.7092C87.7945 21.782 88.3372 22.2293 88.3372 23.124C88.3372 24.004 87.7945 24.444 86.7092 24.444H81.0992V28.338H87.1492C88.2345 28.338 88.7772 28.7853 88.7772 29.68C88.7772 30.56 88.2345 31 87.1492 31H79.3612ZM91.0822 31C90.5688 31 90.1728 30.8607 89.8942 30.582C89.6155 30.3033 89.4762 29.9073 89.4762 29.394V17.096C89.4762 16.5827 89.6155 16.1867 89.8942 15.908C90.1728 15.6293 90.5688 15.49 91.0822 15.49H98.8702C99.9555 15.49 100.498 15.93 100.498 16.81C100.498 17.7047 99.9555 18.152 98.8702 18.152H92.8202V21.782H98.4302C99.5155 21.782 100.058 22.2293 100.058 23.124C100.058 24.004 99.5155 24.444 98.4302 24.444H92.8202V28.338H98.8702C99.9555 28.338 100.498 28.7853 100.498 29.68C100.498 30.56 99.9555 31 98.8702 31H91.0822ZM102.732 31.132C102.189 31.132 101.742 30.956 101.39 30.604C101.038 30.2373 100.862 29.7827 100.862 29.24C100.862 28.6973 101.038 28.25 101.39 27.898C101.742 27.5313 102.189 27.348 102.732 27.348C103.275 27.348 103.722 27.5313 104.074 27.898C104.426 28.25 104.602 28.6973 104.602 29.24C104.602 29.7827 104.426 30.2373 104.074 30.604C103.722 30.956 103.275 31.132 102.732 31.132ZM125.085 28.91C125.203 29.174 125.261 29.4087 125.261 29.614C125.261 30.0247 125.093 30.3767 124.755 30.67C124.433 30.9487 124.059 31.088 123.633 31.088C123.355 31.088 123.091 31.0147 122.841 30.868C122.592 30.7067 122.401 30.472 122.269 30.164L121.103 27.568H113.645L112.479 30.164C112.347 30.472 112.157 30.7067 111.907 30.868C111.673 31.0147 111.409 31.088 111.115 31.088C110.69 31.088 110.309 30.9487 109.971 30.67C109.634 30.3767 109.465 30.0247 109.465 29.614C109.465 29.4087 109.524 29.174 109.641 28.91L115.581 16.436C115.743 16.084 115.985 15.82 116.307 15.644C116.63 15.4533 116.975 15.358 117.341 15.358C117.723 15.358 118.075 15.4533 118.397 15.644C118.72 15.8347 118.969 16.0987 119.145 16.436L125.085 28.91ZM114.811 24.972H119.937L117.385 19.252L114.811 24.972ZM127.439 31C126.926 31 126.53 30.8607 126.251 30.582C125.972 30.3033 125.833 29.9073 125.833 29.394V17.096C125.833 16.5827 125.972 16.1867 126.251 15.908C126.53 15.6293 126.926 15.49 127.439 15.49H131.861C133.548 15.49 135 15.798 136.217 16.414C137.434 17.03 138.366 17.9173 139.011 19.076C139.656 20.2347 139.979 21.6207 139.979 23.234C139.979 24.8473 139.656 26.2407 139.011 27.414C138.38 28.5727 137.456 29.46 136.239 30.076C135.022 30.692 133.562 31 131.861 31H127.439ZM131.619 28.228C134.919 28.228 136.569 26.5633 136.569 23.234C136.569 19.9193 134.919 18.262 131.619 18.262H129.265V28.228H131.619ZM155.064 15.38C155.548 15.38 155.937 15.5413 156.23 15.864C156.538 16.172 156.692 16.5753 156.692 17.074V29.57C156.692 30.054 156.553 30.4353 156.274 30.714C155.996 30.9927 155.629 31.132 155.174 31.132C154.734 31.132 154.375 30.9927 154.096 30.714C153.818 30.4353 153.678 30.054 153.678 29.57V21.804L150.554 27.678C150.349 28.0593 150.122 28.338 149.872 28.514C149.638 28.69 149.352 28.778 149.014 28.778C148.692 28.778 148.406 28.69 148.156 28.514C147.907 28.338 147.68 28.0593 147.474 27.678L144.35 21.914V29.57C144.35 30.0393 144.211 30.4207 143.932 30.714C143.654 30.9927 143.287 31.132 142.832 31.132C142.392 31.132 142.033 30.9927 141.754 30.714C141.476 30.4353 141.336 30.054 141.336 29.57V17.074C141.336 16.5753 141.483 16.172 141.776 15.864C142.084 15.5413 142.48 15.38 142.964 15.38C143.668 15.38 144.204 15.754 144.57 16.502L149.036 24.972L153.48 16.502C153.876 15.754 154.404 15.38 155.064 15.38ZM160.208 31.132C159.68 31.132 159.262 30.978 158.954 30.67C158.646 30.362 158.492 29.944 158.492 29.416V17.074C158.492 16.5607 158.646 16.15 158.954 15.842C159.262 15.534 159.68 15.38 160.208 15.38C160.736 15.38 161.154 15.534 161.462 15.842C161.77 16.15 161.924 16.5607 161.924 17.074V29.416C161.924 29.944 161.77 30.362 161.462 30.67C161.154 30.978 160.736 31.132 160.208 31.132ZM175.517 15.38C176.001 15.38 176.39 15.5413 176.683 15.864C176.991 16.172 177.145 16.5753 177.145 17.074V29.416C177.145 29.9293 176.991 30.3473 176.683 30.67C176.39 30.978 176.001 31.132 175.517 31.132C174.989 31.132 174.564 30.9413 174.241 30.56L166.871 21.122V29.416C166.871 29.9293 166.725 30.3473 166.431 30.67C166.153 30.978 165.771 31.132 165.287 31.132C164.803 31.132 164.415 30.978 164.121 30.67C163.828 30.3473 163.681 29.9293 163.681 29.416V17.074C163.681 16.5753 163.828 16.172 164.121 15.864C164.429 15.5413 164.825 15.38 165.309 15.38C165.852 15.38 166.27 15.5707 166.563 15.952L173.933 25.324V17.074C173.933 16.5753 174.08 16.172 174.373 15.864C174.667 15.5413 175.048 15.38 175.517 15.38Z" fill="#252426"/>
</svg>
