<svg width="20" height="20" viewBox="0 0 20 20" fill="none" xmlns="http://www.w3.org/2000/svg">
<mask id="mask0_0:34" style="mask-type:alpha" maskUnits="userSpaceOnUse" x="0" y="0" width="20" height="20">
<path fill-rule="evenodd" clip-rule="evenodd" d="M0 20V0H20V20H0Z" fill="#5D5D5D"/>
</mask>
<g mask="url(#mask0_0:34)">
<path fill-rule="evenodd" clip-rule="evenodd" d="M11.6817 14.0119L13.3191 14.3169C13.16 15.1894 12.4817 16.6669 10.9459 16.6669C10.3433 16.6661 9.75836 16.4586 9.29083 16.0786C9.02917 15.8928 8.9375 15.8336 8.73919 15.8336C8.44085 15.9469 8.17748 16.1361 7.97582 16.3836L6.72582 15.2861C7.23003 14.6703 7.95 14.2702 8.73919 14.1669C9.29333 14.1736 9.82836 14.3686 10.2566 14.7202C10.4433 14.8961 10.6892 14.9961 10.9459 15.0002C11.465 15.0002 11.6792 14.0227 11.6817 14.0119ZM6.66669 10.8336H13.3333V12.5002H6.66669V10.8336ZM6.66669 7.50023H13.3333V9.16689H6.66669V7.50023ZM4.16669 18.3336V2.50024C4.16669 2.27938 4.25415 2.06692 4.41089 1.91107C4.56665 1.75442 4.77918 1.6669 5 1.6669H11.6667V5.83359H15.8333V18.3336L4.16669 18.3336ZM15.345 4.02358C15.3867 4.06939 15.4258 4.1169 15.4625 4.16689H13.3333V2.03774C13.3834 2.07442 13.4308 2.11358 13.4767 2.15523L15.345 4.02358ZM17.5 5.20275C17.5008 4.76443 17.4158 4.33108 17.2475 3.92608C17.08 3.52191 16.8342 3.15441 16.5233 2.84524L14.655 0.976894C14.0292 0.353574 13.1816 0.00274414 12.2983 0.000244141H5C4.33667 0.000244141 3.70081 0.263584 3.23254 0.732754C2.7633 1.20107 2.5 1.83691 2.5 2.50024V20.0002H17.5V5.20275Z" fill="#5D5D5D"/>
</g>
</svg>
